<svg id="ico_about_skill_53" xmlns="http://www.w3.org/2000/svg" xmlns:xlink="http://www.w3.org/1999/xlink" width="62.554" height="142.808" viewBox="0 0 62.554 142.808">
  <defs>
    <clipPath id="clip-path">
      <rect id="長方形_179" data-name="長方形 179" width="62.554" height="142.808" fill="none"/>
    </clipPath>
  </defs>
  <g id="グループ_51" data-name="グループ 51" transform="translate(0 0)" clip-path="url(#clip-path)">
    <path id="パス_52" data-name="パス 52" d="M31.277,68.6a.908.908,0,0,1-.182-.019L6.722,63.29a.857.857,0,0,1-.671-.755L0,.94A.857.857,0,0,1,.858,0H61.7a.857.857,0,0,1,.855.937L56.883,61.02a.854.854,0,0,1-.628.746L31.5,68.569a.848.848,0,0,1-.227.031M7.7,61.746l23.557,5.112L55.231,60.27,60.754,1.716H1.8Z" transform="translate(0 -0.001)" fill="#fff"/>
    <path id="パス_53" data-name="パス 53" d="M44.56,7.512H7.689L9.644,30.465H34.793l-.733,9.278L25.934,42.43l-7.744-2.687-.976-5.616H9.4l1.465,11.722,15.07,4.638,15.209-4.638,2.442-23.2H16.48L15.5,15.977H43.1Z" transform="translate(5.505 5.377)" fill="#fff"/>
    <path id="パス_54" data-name="パス 54" d="M31.277,111.845a.935.935,0,0,1-.182-.019l-24.374-5.29a.857.857,0,0,1-.671-.755L0,44.186a.857.857,0,0,1,.855-.94H61.7a.857.857,0,0,1,.855.937l-5.668,60.083a.854.854,0,0,1-.628.746l-24.749,6.8a.851.851,0,0,1-.228.031M7.7,104.992,31.253,110.1l23.977-6.588,5.524-58.554H1.8Z" transform="translate(0 30.962)" fill="#fff"/>
    <path id="パス_55" data-name="パス 55" d="M9.152,57.594,7.2,50.758H45.047v6.836L28.426,64.92H45.047L42.619,87.008,27.1,92.756,13.084,88.444l-1.733-11.8h6.836l.489,5.616,8.424,2.2,7.936-2.2.958-9.819H11.105l-.733-7.518L27.1,57.594Z" transform="translate(5.155 36.341)" fill="#fff"/>
  </g>
</svg>
