<svg xmlns="http://www.w3.org/2000/svg" xmlns:xlink="http://www.w3.org/1999/xlink" width="171" height="170" viewBox="0 0 171 170">
  <defs>
    <clipPath id="clip-path">
      <rect id="長方形_151" data-name="長方形 151" width="171" height="170" transform="translate(-0.417 0.369)" fill="none"/>
    </clipPath>
  </defs>
  <g id="ico_about_strength2" transform="translate(0.417 -0.369)">
    <g id="グループ_24" data-name="グループ 24" transform="translate(0 0)" clip-path="url(#clip-path)">
      <path id="パス_25" data-name="パス 25" d="M170.369,85.184A85.184,85.184,0,1,1,85.184,0a85.185,85.185,0,0,1,85.184,85.184" transform="translate(0 -0.001)" fill="#9cd1ab"/>
      <path id="パス_26" data-name="パス 26" d="M44.569,127.505c-9.586,0-17.222-6.916-20.479-18.591a2.736,2.736,0,0,1,5.271-1.47c2.59,9.283,8.388,14.778,15.513,14.586,7.255-.151,16.536-6.6,19.771-20.408C66.029,95.717,70.506,89.509,80.1,80.2c11.989-11.643,15.828-25.969,10.53-39.3-4.775-12.02-16.206-20.532-27.8-20.7-12.057-.137-22.505,8.378-29.277,24.085a2.735,2.735,0,1,1-5.023-2.167c10.4-24.114,26.011-27.6,34.38-27.387,13.746.2,27.238,10.129,32.806,24.15,6.155,15.495,1.853,31.987-11.8,45.248-8.661,8.409-12.828,14.017-13.939,18.752-3.343,14.264-13.616,24.391-24.984,24.63-.14,0-.281,0-.419,0" transform="translate(19.761 12.12)" fill="#fff"/>
      <path id="パス_27" data-name="パス 27" d="M32.124,83.939a2.736,2.736,0,0,1-1.211-5.19c6.075-2.991,13.244-8.807,15.15-16.164,1.3-5.01.024-10.333-3.784-15.821C37.1,39.3,38.724,33.906,40.994,30.69c4.368-6.184,14.552-8.6,18.405-7.541,2.83.77,14.09,5.938,17.466,17.151C80,50.712,75.527,62.9,63.571,76.534a2.735,2.735,0,1,1-4.113-3.607c10.629-12.119,14.723-22.565,12.168-31.05-2.637-8.756-11.94-12.98-13.664-13.45-1.7-.456-9.5,1.176-12.5,5.42-.684.968-2.767,3.919,1.311,9.8,4.756,6.857,6.3,13.691,4.585,20.309-2.369,9.15-10.868,16.177-18.028,19.7a2.724,2.724,0,0,1-1.207.283" transform="translate(24.207 18.872)" fill="#fff"/>
      <path id="パス_28" data-name="パス 28" d="M64.321,68.3a11.06,11.06,0,0,1-2.6-.31,1.823,1.823,0,1,1,.854-3.545,7.6,7.6,0,0,0,6.316-13.489,1.825,1.825,0,1,1,2.179-2.927A11.252,11.252,0,0,1,64.321,68.3" transform="translate(49.688 39.267)" fill="#fff"/>
      <path id="パス_29" data-name="パス 29" d="M64.185,82.5c-.678,0-1.357-.031-2.041-.095a1.823,1.823,0,0,1,.336-3.631,18.663,18.663,0,0,0,14.891-31.8,1.823,1.823,0,0,1,2.575-2.582A22.31,22.31,0,0,1,64.185,82.5" transform="translate(49.829 36.127)" fill="#fff"/>
    </g>
  </g>
</svg>
