<svg xmlns="http://www.w3.org/2000/svg" xmlns:xlink="http://www.w3.org/1999/xlink" width="258.072" height="95.923" viewBox="0 0 258.072 95.923">
  <defs>
    <clipPath id="clip-path">
      <rect id="長方形_89" data-name="長方形 89" width="258.072" height="95.923" transform="translate(0 0)" fill="none"/>
    </clipPath>
  </defs>
  <g id="ico_saimu_big" transform="translate(0 0)">
    <g id="グループ_9" data-name="グループ 9" clip-path="url(#clip-path)">
      <line id="線_35" data-name="線 35" x2="75.526" transform="translate(10.5 31.848)" fill="none" stroke="#000" stroke-linecap="round" stroke-miterlimit="10" stroke-width="21"/>
      <line id="線_36" data-name="線 36" y2="48.992" transform="translate(30.767 10.5)" fill="none" stroke="#000" stroke-linecap="round" stroke-miterlimit="10" stroke-width="21"/>
      <line id="線_37" data-name="線 37" y2="74.923" transform="translate(64.579 10.5)" fill="none" stroke="#000" stroke-linecap="round" stroke-miterlimit="10" stroke-width="21"/>
      <line id="線_38" data-name="線 38" y2="46.664" transform="translate(135.041 38.759)" fill="none" stroke="#000" stroke-linecap="round" stroke-miterlimit="10" stroke-width="21"/>
      <path id="パス_12" data-name="パス 12" d="M49.675,69.79A18.908,18.908,0,1,1,30.767,50.882,18.907,18.907,0,0,1,49.675,69.79"/>
      <path id="パス_13" data-name="パス 13" d="M258.072,70.858a22.9,22.9,0,1,1-22.9-22.9,22.9,22.9,0,0,1,22.9,22.9"/>
      <line id="線_39" data-name="線 39" y1="62.872" x2="62.872" transform="translate(96.435 10.5)" fill="none" stroke="#000" stroke-linecap="round" stroke-miterlimit="10" stroke-width="21"/>
      <path id="パス_14" data-name="パス 14" d="M226.83,10.5,169.715,67.615h65.771" fill="none" stroke="#000" stroke-linecap="round" stroke-linejoin="round" stroke-width="21"/>
    </g>
  </g>
</svg>
