<svg xmlns="http://www.w3.org/2000/svg" xmlns:xlink="http://www.w3.org/1999/xlink" width="170" height="170" viewBox="0 0 170 170">
  <defs>
    <clipPath id="clip-path">
      <rect id="長方形_150" data-name="長方形 150" width="170" height="170" transform="translate(0 0.369)" fill="none"/>
    </clipPath>
  </defs>
  <g id="ico_about_strength1" transform="translate(0 -0.369)">
    <g id="グループ_22" data-name="グループ 22" transform="translate(0 0)" clip-path="url(#clip-path)">
      <path id="パス_16" data-name="パス 16" d="M170.369,85.184A85.184,85.184,0,1,1,85.184,0a85.185,85.185,0,0,1,85.184,85.184" transform="translate(0 -0.001)" fill="#9cd1ab"/>
      <path id="パス_17" data-name="パス 17" d="M74.922,89.2a35.209,35.209,0,1,1,35.21-35.208A35.247,35.247,0,0,1,74.922,89.2m0-66.77a31.561,31.561,0,1,0,31.562,31.562A31.6,31.6,0,0,0,74.922,22.427" transform="translate(32.715 15.469)" fill="#fff"/>
      <path id="パス_18" data-name="パス 18" d="M71.614,78.561A27.883,27.883,0,1,1,99.5,50.68,27.914,27.914,0,0,1,71.614,78.561m0-52.118A24.235,24.235,0,1,0,95.85,50.68,24.264,24.264,0,0,0,71.614,26.444" transform="translate(36.023 18.778)" fill="#fff"/>
      <path id="パス_19" data-name="パス 19" d="M29.51,91.038A5.963,5.963,0,0,1,25.3,80.864L49.054,57.105a5.963,5.963,0,0,1,8.433,8.433L33.727,89.3a5.942,5.942,0,0,1-4.217,1.742M53.27,59.008a2.3,2.3,0,0,0-1.636.678L27.875,83.444a2.325,2.325,0,0,0,0,3.272v0a2.319,2.319,0,0,0,3.274,0L54.906,62.958a2.313,2.313,0,0,0-1.636-3.95" transform="translate(19.403 45.605)" fill="#fff"/>
      <path id="パス_20" data-name="パス 20" d="M46.529,62.493a5.748,5.748,0,1,1,5.747-5.749,5.753,5.753,0,0,1-5.747,5.749m0-7.848a2.1,2.1,0,1,0,2.1,2.1,2.1,2.1,0,0,0-2.1-2.1" transform="translate(33.595 42.01)" fill="#fff"/>
      <path id="パス_21" data-name="パス 21" d="M29.331,63.672a1.824,1.824,0,0,1-1.824-1.824c0-10.7,6.881-19.4,15.342-19.4a1.824,1.824,0,1,1,0,3.648c-6.449,0-11.694,7.069-11.694,15.757a1.824,1.824,0,0,1-1.824,1.824" transform="translate(22.659 34.963)" fill="#fff"/>
      <path id="パス_22" data-name="パス 22" d="M42.849,54.042c-8.459,0-15.342-8.7-15.342-19.4a1.824,1.824,0,1,1,3.648,0c0,8.688,5.247,15.757,11.694,15.757a1.824,1.824,0,1,1,0,3.648" transform="translate(22.659 27.03)" fill="#fff"/>
      <path id="パス_23" data-name="パス 23" d="M34.785,63.672a1.824,1.824,0,0,1-1.824-1.824c0-8.688-5.245-15.757-11.694-15.757a1.824,1.824,0,1,1,0-3.648c8.46,0,15.342,8.7,15.342,19.4a1.824,1.824,0,0,1-1.824,1.824" transform="translate(16.016 34.963)" fill="#fff"/>
      <path id="パス_24" data-name="パス 24" d="M21.267,54.042a1.824,1.824,0,1,1,0-3.648c6.449,0,11.694-7.069,11.694-15.757a1.824,1.824,0,1,1,3.648,0c0,10.7-6.881,19.4-15.342,19.4" transform="translate(16.016 27.03)" fill="#fff"/>
    </g>
  </g>
</svg>
