<svg id="グループ_126" data-name="グループ 126" xmlns="http://www.w3.org/2000/svg" xmlns:xlink="http://www.w3.org/1999/xlink" width="135.809" height="70.65" viewBox="0 0 135.809 70.65">
  <defs>
    <clipPath id="clip-path">
      <rect id="長方形_155" data-name="長方形 155" width="135.809" height="70.65" fill="none"/>
    </clipPath>
  </defs>
  <g id="グループ_32" data-name="グループ 32" transform="translate(0 0)" clip-path="url(#clip-path)">
    <path id="パス_47" data-name="パス 47" d="M32.211,70.648a.936.936,0,0,1-.187-.019L6.923,65.18a.883.883,0,0,1-.691-.778L0,.968A.882.882,0,0,1,.884,0H63.539a.882.882,0,0,1,.88.965L58.582,62.842a.879.879,0,0,1-.647.769l-25.49,7.005a.873.873,0,0,1-.233.032M7.926,63.59l24.26,5.265L56.88,62.07l5.689-60.3H1.858Z" transform="translate(0 0.001)" fill="#fff"/>
    <path id="パス_48" data-name="パス 48" d="M45.568,7.512H7.6L9.606,31.15h25.9l-.755,9.555-8.37,2.766-7.975-2.766L17.4,34.921H9.356l1.509,12.072,15.52,4.777,15.663-4.777L44.562,23.1H16.649l-1.006-6.873H44.058Z" transform="translate(5.827 5.764)" fill="#fff"/>
    <path id="パス_49" data-name="パス 49" d="M72.606,70.648a.964.964,0,0,1-.187-.019l-25.1-5.448a.883.883,0,0,1-.691-.778L40.4.968A.882.882,0,0,1,41.279,0h62.655a.882.882,0,0,1,.88.965L98.977,62.842a.879.879,0,0,1-.647.769L72.841,70.616a.876.876,0,0,1-.235.032M48.321,63.59l24.26,5.265L97.275,62.07l5.689-60.3H42.253Z" transform="translate(30.991 0.001)" fill="#fff"/>
    <path id="パス_50" data-name="パス 50" d="M49.606,14.553,47.595,7.512H86.572v7.041L69.455,22.1H86.572l-2.5,22.748-15.983,5.92L53.654,46.324,51.87,34.167H58.91l.5,5.784,8.675,2.264,8.173-2.264.986-10.112H51.617L50.862,22.1l17.227-7.544Z" transform="translate(36.515 5.764)" fill="#fff"/>
  </g>
</svg>
