<svg id="ico_about_skill_xd" xmlns="http://www.w3.org/2000/svg" xmlns:xlink="http://www.w3.org/1999/xlink" width="69.917" height="69.917" viewBox="0 0 69.917 69.917">
  <defs>
    <clipPath id="clip-path">
      <rect id="長方形_156" data-name="長方形 156" width="69.917" height="69.917" fill="none"/>
    </clipPath>
  </defs>
  <g id="グループ_34" data-name="グループ 34" transform="translate(0 0)" clip-path="url(#clip-path)">
    <path id="パス_51" data-name="パス 51" d="M63.869,69.917H6.048A6.055,6.055,0,0,1,0,63.869V6.048A6.054,6.054,0,0,1,6.048,0H63.869a6.055,6.055,0,0,1,6.048,6.048V63.869a6.055,6.055,0,0,1-6.048,6.048M6.048,1.728a4.326,4.326,0,0,0-4.32,4.32V63.869a4.325,4.325,0,0,0,4.32,4.32H63.869a4.325,4.325,0,0,0,4.32-4.32V6.048a4.326,4.326,0,0,0-4.32-4.32Z" transform="translate(0 -0.001)" fill="#fff"/>
    <text id="X" transform="translate(7.52 49.325)" fill="#fff" font-size="44" font-family="YuGothic-Bold, Yu Gothic" font-weight="700"><tspan x="0" y="0">X</tspan></text>
    <text id="d" transform="translate(35.988 48.325)" fill="#fff" font-size="43" font-family="YuGothic-Bold, Yu Gothic" font-weight="700"><tspan x="0" y="0">d</tspan></text>
  </g>
</svg>
