<svg xmlns="http://www.w3.org/2000/svg" xmlns:xlink="http://www.w3.org/1999/xlink" width="170" height="170" viewBox="0 0 170 170">
  <defs>
    <clipPath id="clip-path">
      <rect id="長方形_152" data-name="長方形 152" width="170" height="170" transform="translate(0.369 0.369)" fill="none"/>
    </clipPath>
  </defs>
  <g id="ico_about_strength3" transform="translate(-0.369 -0.369)">
    <g id="グループ_26" data-name="グループ 26" transform="translate(0 0)" clip-path="url(#clip-path)">
      <path id="パス_30" data-name="パス 30" d="M170.369,85.184A85.184,85.184,0,1,1,85.184,0a85.185,85.185,0,0,1,85.184,85.184" transform="translate(0 -0.001)" fill="#9cd1ab"/>
      <path id="パス_31" data-name="パス 31" d="M43.993,126.117a1.823,1.823,0,0,1-1.824-1.829l.277-94.059a1.824,1.824,0,0,1,1.572-1.8l57.883-8.07a1.793,1.793,0,0,1,1.448.43,1.83,1.83,0,0,1,.627,1.377v86.822a1.822,1.822,0,0,1-1.361,1.764l-58.16,15.305a1.825,1.825,0,0,1-.463.06m2.1-94.294-.266,90.1,54.505-14.344V24.262Z" transform="translate(34.737 16.754)" fill="#fff"/>
      <path id="パス_32" data-name="パス 32" d="M46.882,123.729a1.815,1.815,0,0,1-.664-.126l-6.4-2.5a1.827,1.827,0,0,1-1.16-1.7V25.063a1.825,1.825,0,0,1,2.526-1.683l6.679,2.783a1.824,1.824,0,0,1-1.4,3.367L42.307,27.8v90.357l5.242,2.05a1.825,1.825,0,0,1-.666,3.524" transform="translate(31.846 19.142)" fill="#fff"/>
      <path id="パス_33" data-name="パス 33" d="M40.8,30.14a1.824,1.824,0,0,1-.217-3.635l59.59-7.2a1.823,1.823,0,0,1,2.043,1.809V23.03a1.824,1.824,0,0,1-3.642.14L41.022,30.128a1.842,1.842,0,0,1-.222.013" transform="translate(32.109 15.889)" fill="#fff"/>
      <path id="パス_34" data-name="パス 34" d="M51.744,39.845a1.824,1.824,0,0,1-.3-3.622L83.66,30.8a1.825,1.825,0,0,1,.607,3.6L52.049,39.819a1.731,1.731,0,0,1-.3.026" transform="translate(41.124 25.354)" fill="#fff"/>
      <path id="パス_35" data-name="パス 35" d="M51.744,45.711a1.824,1.824,0,0,1-.3-3.622L83.66,36.67a1.825,1.825,0,0,1,.607,3.6L52.049,45.685a1.731,1.731,0,0,1-.3.026" transform="translate(41.124 30.186)" fill="#fff"/>
      <path id="パス_36" data-name="パス 36" d="M51.744,66.183a1.824,1.824,0,0,1-.341-3.615l33.216-6.354A1.824,1.824,0,0,1,85.3,59.8L52.089,66.15a1.868,1.868,0,0,1-.345.033" transform="translate(41.124 46.283)" fill="#fff"/>
      <path id="パス_37" data-name="パス 37" d="M51.744,70.17a1.824,1.824,0,0,1-.341-3.615L84.619,60.2a1.824,1.824,0,0,1,.686,3.584l-33.216,6.35a1.867,1.867,0,0,1-.345.033" transform="translate(41.124 49.567)" fill="#fff"/>
      <path id="パス_38" data-name="パス 38" d="M29.1,123.512a1.822,1.822,0,0,1-1.824-1.824V27.281a1.822,1.822,0,0,1,1.572-1.806L87.364,17.34a1.822,1.822,0,0,1,2.074,1.806v4.793a1.824,1.824,0,0,1-3.648,0v-2.7L30.923,28.87v90.459l17.78-4.643a1.823,1.823,0,1,1,.919,3.529l-20.063,5.24a1.879,1.879,0,0,1-.46.058" transform="translate(22.468 14.267)" fill="#fff"/>
      <path id="パス_39" data-name="パス 39" d="M30.794,124.011a1.806,1.806,0,0,1-.8-.184l-4.57-2.229a1.825,1.825,0,0,1-1.025-1.64V25.885A1.824,1.824,0,0,1,26,24.076l59.632-7.348a1.824,1.824,0,0,1,2.046,1.809v1.107a1.824,1.824,0,0,1-3.4.925L28.05,27.5v91.32l3.545,1.729a1.824,1.824,0,0,1-.8,3.463" transform="translate(20.102 13.768)" fill="#fff"/>
      <path id="パス_40" data-name="パス 40" d="M31.465,28.555a1.845,1.845,0,0,1-.62-.109l-5.24-1.895a1.824,1.824,0,1,1,1.242-3.431l5.238,1.895a1.825,1.825,0,0,1-.62,3.54" transform="translate(20.102 18.955)" fill="#fff"/>
      <path id="パス_41" data-name="パス 41" d="M37.286,35.406a1.823,1.823,0,0,1-.347-3.613l5.015-.979a1.824,1.824,0,1,1,.7,3.58l-5.017.978a1.767,1.767,0,0,1-.35.035" transform="translate(29.214 25.354)" fill="#fff"/>
      <path id="パス_42" data-name="パス 42" d="M37.286,41a1.823,1.823,0,0,1-.347-3.613l5.015-.979a1.824,1.824,0,0,1,.7,3.58l-5.017.978a1.767,1.767,0,0,1-.35.035" transform="translate(29.214 29.966)" fill="#fff"/>
      <path id="パス_43" data-name="パス 43" d="M37.286,61.184a1.823,1.823,0,0,1-.347-3.613l5.015-.979a1.824,1.824,0,1,1,.7,3.58l-5.017.978a1.767,1.767,0,0,1-.35.035" transform="translate(29.214 46.589)" fill="#fff"/>
      <path id="パス_44" data-name="パス 44" d="M37.286,65.245a1.823,1.823,0,0,1-.348-3.613l5.017-.981a1.824,1.824,0,0,1,.7,3.58l-5.015.979a1.8,1.8,0,0,1-.352.035" transform="translate(29.214 49.933)" fill="#fff"/>
    </g>
  </g>
</svg>
