<svg xmlns="http://www.w3.org/2000/svg" xmlns:xlink="http://www.w3.org/1999/xlink" width="70" height="70" viewBox="0 0 70 70">
  <defs>
    <clipPath id="clip-path">
      <rect id="長方形_355" data-name="長方形 355" width="70" height="70" fill="none"/>
    </clipPath>
  </defs>
  <g id="ico_about_skill_xd" transform="translate(0 0)">
    <g id="グループ_170" data-name="グループ 170" transform="translate(0 0)" clip-path="url(#clip-path)">
      <path id="パス_72" data-name="パス 72" d="M63.945,70H6.055A6.062,6.062,0,0,1,0,63.945V6.055A6.062,6.062,0,0,1,6.055,0h57.89A6.062,6.062,0,0,1,70,6.055v57.89A6.062,6.062,0,0,1,63.945,70M6.055,1.73A4.331,4.331,0,0,0,1.73,6.055v57.89A4.33,4.33,0,0,0,6.055,68.27h57.89a4.33,4.33,0,0,0,4.325-4.325V6.055A4.331,4.331,0,0,0,63.945,1.73Z" transform="translate(0 -0.001)" fill="#fff"/>
      <path id="パス_73" data-name="パス 73" d="M33.928,8.962,23.242,26.2,34.494,44.86H27.309L20.645,33.338c-.121-.194-.341-.593-.656-1.2q-.34-.631-.586-1.016-.477.812-1.2,2.213L11.5,44.86H4.966l11.16-18.413L5.712,8.962h7.071l5.783,10.166q.249.431.768,1.379.407.768.678,1.22l1.469-2.688L27.354,8.962Z" transform="translate(3.625 6.542)" fill="#fff"/>
      <path id="パス_74" data-name="パス 74" d="M44.543,8.583V45.137h-5.6V41.613a7.811,7.811,0,0,1-7.116,4.18,8.363,8.363,0,0,1-7.252-3.931,16.7,16.7,0,0,1-2.464-9.534q0-6.687,3.209-10.233a8.364,8.364,0,0,1,6.507-2.87,7.586,7.586,0,0,1,6.936,4.043V8.583ZM38.759,28.125q-1.762-4.36-5.264-4.36a4.5,4.5,0,0,0-4,2.372,11.814,11.814,0,0,0-1.424,6.28q0,4.679,1.83,7a4.537,4.537,0,0,0,3.728,1.829q3.3,0,5.128-4.247Z" transform="translate(16.139 6.265)" fill="#fff"/>
    </g>
  </g>
</svg>
